<?xml version="1.0" encoding="UTF-8" standalone="no"?>
<svg
   version="1.1"
   id="svg2"
   viewBox="0 0 3182.3713 709.66853"
   height="20.028423cm"
   width="89.813591cm"
   inkscape:version="1.1.2 (0a00cf5339, 2022-02-04)"
   sodipodi:docname="LogoUIBCDF_vectorizado_google_form.svg"
   inkscape:export-filename="/home/diego/projects@uibcdf/Logos/UIBCDF/LogoUIBCDF_google_form.png"
   inkscape:export-xdpi="96"
   inkscape:export-ydpi="96"
   xmlns:inkscape="http://www.inkscape.org/namespaces/inkscape"
   xmlns:sodipodi="http://sodipodi.sourceforge.net/DTD/sodipodi-0.dtd"
   xmlns="http://www.w3.org/2000/svg"
   xmlns:svg="http://www.w3.org/2000/svg"
   xmlns:rdf="http://www.w3.org/1999/02/22-rdf-syntax-ns#"
   xmlns:cc="http://creativecommons.org/ns#"
   xmlns:dc="http://purl.org/dc/elements/1.1/">
  <sodipodi:namedview
     pagecolor="#ffffff"
     bordercolor="#666666"
     borderopacity="1"
     objecttolerance="10"
     gridtolerance="10"
     guidetolerance="10"
     inkscape:pageopacity="0"
     inkscape:pageshadow="2"
     inkscape:window-width="1920"
     inkscape:window-height="1043"
     id="namedview40"
     showgrid="false"
     fit-margin-top="0"
     fit-margin-left="0"
     fit-margin-right="0"
     fit-margin-bottom="0"
     inkscape:zoom="0.27751852"
     inkscape:cx="893.63405"
     inkscape:cy="212.59842"
     inkscape:window-x="1920"
     inkscape:window-y="0"
     inkscape:window-maximized="1"
     inkscape:current-layer="layer1"
     inkscape:pagecheckerboard="0"
     inkscape:document-units="cm" />
  <defs
     id="defs4">
    <linearGradient
       id="linearGradient5816"
       inkscape:swatch="solid">
      <stop
         id="stop5818"
         offset="0"
         style="stop-color:#0066cd;stop-opacity:1;" />
    </linearGradient>
    <linearGradient
       id="linearGradient5810"
       inkscape:swatch="solid">
      <stop
         id="stop5812"
         offset="0"
         style="stop-color:#0066cd;stop-opacity:1;" />
    </linearGradient>
    <linearGradient
       id="linearGradient5800-2"
       inkscape:swatch="solid">
      <stop
         style="stop-color:#004082;stop-opacity:0;"
         offset="0"
         id="stop5808" />
    </linearGradient>
    <linearGradient
       id="linearGradient5800">
      <stop
         id="stop5802"
         offset="0"
         style="stop-color:#004082;stop-opacity:0;" />
    </linearGradient>
    <linearGradient
       id="azul-8"
       inkscape:swatch="solid">
      <stop
         id="stop5796"
         offset="0"
         style="stop-color:#004082;stop-opacity:0;" />
    </linearGradient>
    <linearGradient
       id="linearGradient5788"
       inkscape:swatch="solid">
      <stop
         id="stop5790"
         offset="0"
         style="stop-color:#0066cd;stop-opacity:0;" />
    </linearGradient>
  </defs>
  <metadata
     id="metadata7">
    <rdf:RDF>
      <cc:Work
         rdf:about="">
        <dc:format>image/svg+xml</dc:format>
        <dc:type
           rdf:resource="http://purl.org/dc/dcmitype/StillImage" />
        <dc:title />
      </cc:Work>
    </rdf:RDF>
  </metadata>
  <g
     transform="translate(356.13522,-272.77069)"
     id="layer1">
    <g
       id="g67"
       transform="translate(553.58019,123.44834)">
      <rect
         y="272.77069"
         x="-356.13522"
         height="462.77182"
         width="462.13873"
         id="rect3336"
         style="fill:none;fill-rule:evenodd;stroke:none;stroke-width:0.670067;stroke-linecap:butt;stroke-linejoin:miter;stroke-miterlimit:4;stroke-dasharray:none;stroke-opacity:1" />
      <circle
         cy="688.716"
         cx="-310.57492"
         id="path4164"
         style="fill:#004082;fill-opacity:1;fill-rule:nonzero;stroke:none;stroke-width:0.813986;stroke-linejoin:miter;stroke-miterlimit:4;stroke-dasharray:none;stroke-opacity:1"
         r="34.251637" />
      <circle
         cy="596.29303"
         cx="-310.57492"
         id="path4164-6"
         style="fill:#004082;fill-opacity:1;stroke:none;stroke-width:0.813986;stroke-linejoin:miter;stroke-miterlimit:4;stroke-dasharray:none;stroke-opacity:1"
         r="34.251637" />
      <circle
         cy="688.716"
         cx="-218.1519"
         id="path4164-62"
         style="fill:#004082;fill-opacity:1;stroke:none;stroke-width:0.813986;stroke-linejoin:miter;stroke-miterlimit:4;stroke-dasharray:none;stroke-opacity:1"
         r="34.251637" />
      <circle
         cy="596.29303"
         cx="-218.1519"
         id="path4164-6-9"
         style="fill:#ffcc00;fill-opacity:1;stroke:none;stroke-width:0.813986;stroke-linejoin:miter;stroke-miterlimit:4;stroke-dasharray:none;stroke-opacity:1"
         r="34.251637" />
      <circle
         cy="688.716"
         cx="-125.72889"
         id="path4164-0"
         style="fill:#004082;fill-opacity:1;stroke:none;stroke-width:0.813986;stroke-linejoin:miter;stroke-miterlimit:4;stroke-dasharray:none;stroke-opacity:1"
         r="34.251637" />
      <circle
         cy="596.29303"
         cx="-125.72889"
         id="path4164-6-93"
         style="fill:#ce5027;fill-opacity:1;stroke:#f07844;stroke-width:0.813986;stroke-linejoin:miter;stroke-miterlimit:4;stroke-dasharray:none;stroke-opacity:1"
         r="34.251637" />
      <circle
         cy="503.86996"
         cx="-125.72889"
         id="path4164-6-7-6"
         style="fill:#ffcc00;fill-opacity:1;stroke:none;stroke-width:0.813986;stroke-linejoin:miter;stroke-miterlimit:4;stroke-dasharray:none;stroke-opacity:1"
         r="34.251637" />
      <circle
         cy="411.44696"
         cx="-125.72889"
         id="path4164-6-7-5-3-0"
         style="fill:#ce5027;fill-opacity:1;stroke:#f07844;stroke-width:0.813986;stroke-linejoin:miter;stroke-miterlimit:4;stroke-dasharray:none;stroke-opacity:1"
         r="34.251637" />
      <circle
         cy="688.716"
         cx="-33.305862"
         id="path4164-2"
         style="fill:#004082;fill-opacity:1;stroke:none;stroke-width:0.813986;stroke-linejoin:miter;stroke-miterlimit:4;stroke-dasharray:none;stroke-opacity:1"
         r="34.251637" />
      <circle
         cy="596.29303"
         cx="-33.305862"
         id="path4164-6-6"
         style="fill:#004082;fill-opacity:1;stroke:none;stroke-width:0.813986;stroke-linejoin:miter;stroke-miterlimit:4;stroke-dasharray:none;stroke-opacity:1"
         r="34.251637" />
      <circle
         cy="503.86996"
         cx="-33.305862"
         id="path4164-6-7-18"
         style="fill:#004082;fill-opacity:1;stroke:none;stroke-width:0.813986;stroke-linejoin:miter;stroke-miterlimit:4;stroke-dasharray:none;stroke-opacity:1"
         r="34.251637" />
      <circle
         cy="411.44696"
         cx="-33.305862"
         id="path4164-6-7-5-3-7"
         style="fill:#ffcc00;fill-opacity:1;stroke:none;stroke-width:0.813986;stroke-linejoin:miter;stroke-miterlimit:4;stroke-dasharray:none;stroke-opacity:1"
         r="34.251637" />
      <circle
         cy="688.716"
         cx="59.117168"
         id="path4164-20"
         style="fill:#004082;fill-opacity:1;stroke:none;stroke-width:0.813986;stroke-linejoin:miter;stroke-miterlimit:4;stroke-dasharray:none;stroke-opacity:1"
         r="34.251637" />
      <circle
         cy="596.29303"
         cx="59.117168"
         id="path4164-6-2"
         style="fill:#004082;fill-opacity:1;stroke:none;stroke-width:0.813986;stroke-linejoin:miter;stroke-miterlimit:4;stroke-dasharray:none;stroke-opacity:1"
         r="34.251637" />
      <circle
         cy="503.86996"
         cx="59.117168"
         id="path4164-6-7-3"
         style="fill:#004082;fill-opacity:1;stroke:none;stroke-width:0.813986;stroke-linejoin:miter;stroke-miterlimit:4;stroke-dasharray:none;stroke-opacity:1"
         r="34.251637" />
      <circle
         cy="411.44699"
         cx="59.117168"
         id="path4164-6-7-5-3-75"
         style="fill:#004082;fill-opacity:1;stroke:none;stroke-width:0.813986;stroke-linejoin:miter;stroke-miterlimit:4;stroke-dasharray:none;stroke-opacity:1"
         r="34.251637" />
      <circle
         cy="319.02399"
         cx="59.117168"
         id="path4164-6-7-5-5-92"
         style="fill:#004082;fill-opacity:1;stroke:none;stroke-width:0.813986;stroke-linejoin:miter;stroke-miterlimit:4;stroke-dasharray:none;stroke-opacity:1"
         r="34.251637" />
      <path
         inkscape:connector-curvature="0"
         id="path4169"
         style="font-style:normal;font-variant:normal;font-weight:800;font-stretch:normal;font-size:275px;line-height:125%;font-family:Lato;-inkscape-font-specification:'Lato Ultra-Bold';letter-spacing:0px;word-spacing:0px;fill:#004082;fill-opacity:1;stroke:none;stroke-width:0.652096px;stroke-linecap:butt;stroke-linejoin:miter;stroke-opacity:1"
         d="m 271.41322,645.51632 q 16.0226,0 28.75291,-7.08745 12.73032,-7.38277 21.50985,-20.67174 8.77953,-13.28898 13.38878,-32.18885 4.60926,-18.89988 4.60926,-42.52473 V 287.89519 h 65.84648 v 255.14836 q 0,38.981 -9.438,71.76047 -9.2185,32.48417 -26.55807,56.10901 -17.33958,23.62485 -42.14175,36.91383 -24.80218,13.28898 -55.96946,13.28898 -31.16736,0 -56.18902,-13.28898 -24.80217,-13.28898 -42.14173,-36.91383 -17.33959,-23.62484 -26.77757,-56.10901 -9.21852,-32.77947 -9.21852,-71.76047 V 287.89519 h 65.84648 v 255.14836 q 0,23.62485 4.60926,42.52473 4.60926,18.89987 13.38879,32.18885 8.77953,13.28897 21.50984,20.67174 12.73032,7.08745 28.97247,7.08745 z" />
      <path
         inkscape:connector-curvature="0"
         id="path4171"
         style="font-style:normal;font-variant:normal;font-weight:800;font-stretch:normal;font-size:275px;line-height:125%;font-family:Lato;-inkscape-font-specification:'Lato Ultra-Bold';letter-spacing:0px;word-spacing:0px;fill:#004082;fill-opacity:1;stroke:none;stroke-width:0.652096px;stroke-linecap:butt;stroke-linejoin:miter;stroke-opacity:1"
         d="M 534.84029,716.39087 H 468.55482 V 287.89519 h 66.28547 z" />
      <path
         inkscape:connector-curvature="0"
         id="path4173"
         style="font-style:normal;font-variant:normal;font-weight:800;font-stretch:normal;font-size:275px;line-height:125%;font-family:Lato;-inkscape-font-specification:'Lato Ultra-Bold';letter-spacing:0px;word-spacing:0px;fill:#004082;fill-opacity:1;stroke:none;stroke-width:0.652096px;stroke-linecap:butt;stroke-linejoin:miter;stroke-opacity:1"
         d="M 601.44822,716.39087 V 287.89519 h 113.03642 q 32.04529,0 54.6526,8.2687 22.82675,7.97338 37.09349,23.03422 14.48624,14.76553 21.07091,36.0279 6.5846,21.26236 6.5846,47.545 0,14.76553 -3.2923,28.34982 -3.0728,13.58429 -9.87697,25.69202 -6.58466,11.81242 -17.12012,21.55767 -10.53539,9.74526 -25.02163,16.5374 63.65159,20.08112 63.65159,94.20408 0,27.16858 -7.90158,50.49811 -7.68207,23.32954 -22.60731,40.45755 -14.92516,17.12802 -36.87399,26.87327 -21.72933,9.44994 -50.04333,9.44994 z m 65.84647,-185.15975 v 117.23831 h 56.40844 q 15.80321,0 25.89961,-5.02028 10.31596,-5.31559 16.46163,-13.8796 6.14568,-8.56401 8.56006,-19.4905 2.41439,-11.2218 2.41439,-23.03423 0,-12.99366 -2.85338,-23.32953 -2.85331,-10.33588 -9.21848,-17.42333 -6.36517,-7.38277 -16.68113,-11.2218 -10.09646,-3.83904 -25.02163,-3.83904 z m 0,-60.24336 h 43.23917 q 13.82775,0 24.5827,-2.9531 10.75489,-3.24843 17.99804,-10.04057 7.24309,-6.79214 10.97438,-17.71863 3.95079,-11.2218 3.95079,-26.87327 0,-15.94677 -3.2923,-27.16858 -3.07287,-11.22179 -9.65748,-18.01394 -6.58466,-6.79214 -16.68113,-9.74525 -10.09646,-3.24841 -23.92422,-3.24841 h -47.18995 z" />
      <path
         inkscape:connector-curvature="0"
         id="path4175"
         style="font-style:normal;font-variant:normal;font-weight:800;font-stretch:normal;font-size:275px;line-height:125%;font-family:Lato;-inkscape-font-specification:'Lato Ultra-Bold';letter-spacing:0px;word-spacing:0px;fill:#004082;fill-opacity:1;stroke:none;stroke-width:0.652096px;stroke-linecap:butt;stroke-linejoin:miter;stroke-opacity:1"
         d="m 1109.8103,610.96499 q 5.4872,0 9.2185,5.31559 l 26.1191,37.50444 q -19.3149,33.07479 -48.0679,50.20281 -28.5335,17.12801 -68.0414,17.12801 -35.77657,0 -64.31,-16.24208 -28.53349,-16.5374 -48.50692,-45.77315 -19.97343,-29.23574 -30.72838,-69.39799 -10.75489,-40.16224 -10.75489,-87.70725 0,-31.89354 5.0482,-60.53867 5.26769,-28.94044 15.14466,-53.15591 9.87697,-24.21547 23.70479,-43.70597 14.04725,-19.4905 31.6063,-33.07478 17.55905,-13.8796 38.19097,-20.96706 20.85137,-7.38276 44.33667,-7.38276 17.559,0 33.1427,4.13435 15.8031,4.13434 29.4114,11.51711 13.6082,7.38277 25.0217,18.01395 11.6328,10.33587 20.8513,22.73891 l -22.1683,40.75287 q -1.9754,3.83904 -5.0482,6.79214 -3.0729,2.95311 -8.3406,2.95311 -5.2677,0 -10.7549,-5.02028 -5.2677,-5.02029 -13.1693,-11.22181 -7.6821,-6.20152 -19.5344,-11.2218 -11.6329,-5.02028 -29.6309,-5.02028 -19.9735,0 -36.65459,9.74525 -16.68113,9.74525 -28.75299,28.34982 -11.85236,18.30926 -18.43696,45.18252 -6.58467,26.87326 -6.58467,61.12929 0,34.55134 7.02359,61.71992 7.24316,26.87326 19.53451,45.47783 12.51078,18.60457 28.97242,28.34982 16.68109,9.44994 35.55709,9.44994 11.1939,0 20.1929,-1.47656 9.2186,-1.47655 16.9006,-5.02028 7.9016,-3.54372 14.7057,-9.15463 7.0237,-5.6109 14.0473,-14.1749 2.4144,-2.6578 5.0482,-4.42966 2.6339,-1.77186 5.7067,-1.77186 z" />
      <path
         inkscape:connector-curvature="0"
         id="path4177"
         style="font-style:normal;font-variant:normal;font-weight:800;font-stretch:normal;font-size:275px;line-height:125%;font-family:Lato;-inkscape-font-specification:'Lato Ultra-Bold';letter-spacing:0px;word-spacing:0px;fill:#004082;fill-opacity:1;stroke:none;stroke-width:0.652096px;stroke-linecap:butt;stroke-linejoin:miter;stroke-opacity:1"
         d="m 1467.446,501.99537 q 0,46.95439 -11.8524,86.52601 -11.6329,39.27631 -33.1428,67.62613 -21.2903,28.34981 -51.3602,44.29659 -30.0699,15.94677 -66.7245,15.94677 H 1181.8917 V 287.89519 h 122.4744 q 36.6546,0 66.7245,15.94677 30.0699,15.94677 51.3602,44.5919 21.5099,28.34982 33.1428,67.62613 11.8524,39.27631 11.8524,85.93538 z m -67.6025,0 q 0,-33.66541 -6.5846,-60.53867 -6.5846,-26.87326 -18.876,-45.47783 -12.2913,-18.60457 -30.0699,-28.64513 -17.559,-10.04056 -39.9469,-10.04056 h -56.189 v 289.6997 h 56.189 q 22.3879,0 39.9469,-9.74525 17.7786,-10.04056 30.0699,-28.64513 12.2914,-18.89988 18.876,-45.77314 6.5846,-26.87327 6.5846,-60.83399 z" />
      <path
         inkscape:connector-curvature="0"
         id="path4179"
         style="font-style:normal;font-variant:normal;font-weight:800;font-stretch:normal;font-size:275px;line-height:125%;font-family:Lato;-inkscape-font-specification:'Lato Ultra-Bold';letter-spacing:0px;word-spacing:0px;fill:#004082;fill-opacity:1;stroke:none;stroke-width:0.652096px;stroke-linecap:butt;stroke-linejoin:miter;stroke-opacity:1"
         d="m 1719.0756,287.89519 v 69.39799 h -136.5217 v 118.41955 h 114.5729 v 69.6933 h -114.5729 v 170.98484 h -66.2855 V 287.89519 Z" />
    </g>
  </g>
</svg>
