<?xml version="1.0" encoding="UTF-8" standalone="no"?>
<!-- Created with Inkscape (http://www.inkscape.org/) -->

<svg
   xmlns:dc="http://purl.org/dc/elements/1.1/"
   xmlns:cc="http://creativecommons.org/ns#"
   xmlns:rdf="http://www.w3.org/1999/02/22-rdf-syntax-ns#"
   xmlns:svg="http://www.w3.org/2000/svg"
   xmlns="http://www.w3.org/2000/svg"
   xmlns:sodipodi="http://sodipodi.sourceforge.net/DTD/sodipodi-0.dtd"
   xmlns:inkscape="http://www.inkscape.org/namespaces/inkscape"
   width="94mm"
   height="54mm"
   viewBox="0 0 333.07088 191.33858"
   id="svg2"
   version="1.1"
   inkscape:version="0.91 r13725"
   sodipodi:docname="BackCard.svg">
  <defs
     id="defs4" />
  <sodipodi:namedview
     id="base"
     pagecolor="#ffffff"
     bordercolor="#666666"
     borderopacity="1.0"
     inkscape:pageopacity="0.0"
     inkscape:pageshadow="2"
     inkscape:zoom="2"
     inkscape:cx="88.357644"
     inkscape:cy="106.01951"
     inkscape:document-units="in"
     inkscape:current-layer="layer2"
     showgrid="false"
     units="mm"
     width="3.75in"
     borderlayer="true"
     inkscape:showpageshadow="false"
     inkscape:window-width="1920"
     inkscape:window-height="1056"
     inkscape:window-x="0"
     inkscape:window-y="24"
     inkscape:window-maximized="1" />
  <metadata
     id="metadata7">
    <rdf:RDF>
      <cc:Work
         rdf:about="">
        <dc:format>image/svg+xml</dc:format>
        <dc:type
           rdf:resource="http://purl.org/dc/dcmitype/StillImage" />
        <dc:title></dc:title>
      </cc:Work>
    </rdf:RDF>
  </metadata>
  <g
     inkscape:label="Layer 1"
     inkscape:groupmode="layer"
     id="layer1"
     transform="translate(0,-861.0236)"
     style="display:inline" />
  <g
     inkscape:groupmode="layer"
     id="layer3"
     inkscape:label="Logo"
     transform="translate(0,-11.161429)">
    <path
       style="fill:none;fill-rule:evenodd;stroke:none;stroke-width:1.02755904;stroke-linecap:butt;stroke-linejoin:miter;stroke-miterlimit:4;stroke-dasharray:none;stroke-opacity:1"
       d="m 226.71809,96.092529 90.19142,0 0,90.314961 -90.19142,0 z"
       id="rect3336" />
    <path
       style="fill:#004082;fill-opacity:1;fill-rule:nonzero;stroke:none;stroke-width:1.24826133;stroke-linejoin:miter;stroke-miterlimit:4;stroke-dasharray:none;stroke-opacity:1"
       d="m 241.19079,177.48103 a 6.6845808,6.6845808 0 0 1 -6.68458,6.68458 6.6845808,6.6845808 0 0 1 -6.68458,-6.68458 6.6845808,6.6845808 0 0 1 6.68458,-6.68458 6.6845808,6.6845808 0 0 1 6.68458,6.68458 z"
       id="path4164" />
    <path
       style="fill:#004082;fill-opacity:1;stroke:none;stroke-width:1.24826133;stroke-linejoin:miter;stroke-miterlimit:4;stroke-dasharray:none;stroke-opacity:1"
       d="m 241.19079,159.44373 a 6.6845808,6.6845808 0 0 1 -6.68458,6.68458 6.6845808,6.6845808 0 0 1 -6.68458,-6.68458 6.6845808,6.6845808 0 0 1 6.68458,-6.68459 6.6845808,6.6845808 0 0 1 6.68458,6.68459 z"
       id="path4164-6" />
    <path
       style="fill:#004082;fill-opacity:1;stroke:none;stroke-width:1.24826133;stroke-linejoin:miter;stroke-miterlimit:4;stroke-dasharray:none;stroke-opacity:1"
       d="m 259.2281,177.48103 a 6.6845808,6.6845808 0 0 1 -6.68458,6.68458 6.6845808,6.6845808 0 0 1 -6.68458,-6.68458 6.6845808,6.6845808 0 0 1 6.68458,-6.68458 6.6845808,6.6845808 0 0 1 6.68458,6.68458 z"
       id="path4164-62" />
    <path
       style="fill:#ffcc00;fill-opacity:1;stroke:none;stroke-width:1.24826133;stroke-linejoin:miter;stroke-miterlimit:4;stroke-dasharray:none;stroke-opacity:1"
       d="m 259.2281,159.44373 a 6.6845808,6.6845808 0 0 1 -6.68458,6.68458 6.6845808,6.6845808 0 0 1 -6.68458,-6.68458 6.6845808,6.6845808 0 0 1 6.68458,-6.68459 6.6845808,6.6845808 0 0 1 6.68458,6.68459 z"
       id="path4164-6-9" />
    <path
       style="fill:#004082;fill-opacity:1;stroke:none;stroke-width:1.24826133;stroke-linejoin:miter;stroke-miterlimit:4;stroke-dasharray:none;stroke-opacity:1"
       d="m 277.26551,177.48103 a 6.6845808,6.6845808 0 0 1 -6.68458,6.68458 6.6845808,6.6845808 0 0 1 -6.68458,-6.68458 6.6845808,6.6845808 0 0 1 6.68458,-6.68458 6.6845808,6.6845808 0 0 1 6.68458,6.68458 z"
       id="path4164-0" />
    <path
       style="fill:#ce5027;fill-opacity:1;stroke:#ce5027;stroke-width:0.15885822;stroke-linejoin:miter;stroke-miterlimit:4;stroke-dasharray:none;stroke-opacity:1"
       d="m 277.26551,159.44373 a 6.6845808,6.6845808 0 0 1 -6.68458,6.68458 6.6845808,6.6845808 0 0 1 -6.68458,-6.68458 6.6845808,6.6845808 0 0 1 6.68458,-6.68459 6.6845808,6.6845808 0 0 1 6.68458,6.68459 z"
       id="path4164-6-93" />
    <path
       style="fill:#ffcc00;fill-opacity:1;stroke:none;stroke-width:1.24826133;stroke-linejoin:miter;stroke-miterlimit:4;stroke-dasharray:none;stroke-opacity:1"
       d="m 277.26551,141.40634 a 6.6845808,6.6845808 0 0 1 -6.68458,6.68458 6.6845808,6.6845808 0 0 1 -6.68458,-6.68458 6.6845808,6.6845808 0 0 1 6.68458,-6.68458 6.6845808,6.6845808 0 0 1 6.68458,6.68458 z"
       id="path4164-6-7-6" />
    <path
       style="fill:#ce5027;fill-opacity:1;stroke:#ce5027;stroke-width:0.15885822;stroke-linejoin:miter;stroke-miterlimit:4;stroke-dasharray:none;stroke-opacity:1"
       d="m 277.26551,123.36899 a 6.6845808,6.6845808 0 0 1 -6.68458,6.68458 6.6845808,6.6845808 0 0 1 -6.68458,-6.68458 6.6845808,6.6845808 0 0 1 6.68458,-6.68458 6.6845808,6.6845808 0 0 1 6.68458,6.68458 z"
       id="path4164-6-7-5-3-0" />
    <path
       style="fill:#004082;fill-opacity:1;stroke:none;stroke-width:1.24826133;stroke-linejoin:miter;stroke-miterlimit:4;stroke-dasharray:none;stroke-opacity:1"
       d="m 295.30287,177.48103 a 6.6845808,6.6845808 0 0 1 -6.68458,6.68458 6.6845808,6.6845808 0 0 1 -6.68458,-6.68458 6.6845808,6.6845808 0 0 1 6.68458,-6.68458 6.6845808,6.6845808 0 0 1 6.68458,6.68458 z"
       id="path4164-2" />
    <path
       style="fill:#004082;fill-opacity:1;stroke:none;stroke-width:1.24826133;stroke-linejoin:miter;stroke-miterlimit:4;stroke-dasharray:none;stroke-opacity:1"
       d="m 295.30287,159.44373 a 6.6845808,6.6845808 0 0 1 -6.68458,6.68458 6.6845808,6.6845808 0 0 1 -6.68458,-6.68458 6.6845808,6.6845808 0 0 1 6.68458,-6.68459 6.6845808,6.6845808 0 0 1 6.68458,6.68459 z"
       id="path4164-6-6" />
    <path
       style="fill:#004082;fill-opacity:1;stroke:none;stroke-width:1.24826133;stroke-linejoin:miter;stroke-miterlimit:4;stroke-dasharray:none;stroke-opacity:1"
       d="m 295.30287,141.40634 a 6.6845808,6.6845808 0 0 1 -6.68458,6.68458 6.6845808,6.6845808 0 0 1 -6.68458,-6.68458 6.6845808,6.6845808 0 0 1 6.68458,-6.68458 6.6845808,6.6845808 0 0 1 6.68458,6.68458 z"
       id="path4164-6-7-18" />
    <path
       style="fill:#ffcc00;fill-opacity:1;stroke:none;stroke-width:1.24826133;stroke-linejoin:miter;stroke-miterlimit:4;stroke-dasharray:none;stroke-opacity:1"
       d="m 295.30287,123.36899 a 6.6845808,6.6845808 0 0 1 -6.68458,6.68458 6.6845808,6.6845808 0 0 1 -6.68458,-6.68458 6.6845808,6.6845808 0 0 1 6.68458,-6.68458 6.6845808,6.6845808 0 0 1 6.68458,6.68458 z"
       id="path4164-6-7-5-3-7" />
    <path
       style="fill:#004082;fill-opacity:1;stroke:none;stroke-width:1.24826133;stroke-linejoin:miter;stroke-miterlimit:4;stroke-dasharray:none;stroke-opacity:1"
       d="m 313.34022,177.48103 a 6.6845808,6.6845808 0 0 1 -6.68458,6.68458 6.6845808,6.6845808 0 0 1 -6.68458,-6.68458 6.6845808,6.6845808 0 0 1 6.68458,-6.68458 6.6845808,6.6845808 0 0 1 6.68458,6.68458 z"
       id="path4164-20" />
    <path
       style="fill:#004082;fill-opacity:1;stroke:none;stroke-width:1.24826133;stroke-linejoin:miter;stroke-miterlimit:4;stroke-dasharray:none;stroke-opacity:1"
       d="m 313.34022,159.44373 a 6.6845808,6.6845808 0 0 1 -6.68458,6.68458 6.6845808,6.6845808 0 0 1 -6.68458,-6.68458 6.6845808,6.6845808 0 0 1 6.68458,-6.68459 6.6845808,6.6845808 0 0 1 6.68458,6.68459 z"
       id="path4164-6-2" />
    <path
       style="fill:#004082;fill-opacity:1;stroke:none;stroke-width:1.24826133;stroke-linejoin:miter;stroke-miterlimit:4;stroke-dasharray:none;stroke-opacity:1"
       d="m 313.34022,141.40634 a 6.6845808,6.6845808 0 0 1 -6.68458,6.68458 6.6845808,6.6845808 0 0 1 -6.68458,-6.68458 6.6845808,6.6845808 0 0 1 6.68458,-6.68458 6.6845808,6.6845808 0 0 1 6.68458,6.68458 z"
       id="path4164-6-7-3" />
    <path
       style="fill:#004082;fill-opacity:1;stroke:none;stroke-width:1.24826133;stroke-linejoin:miter;stroke-miterlimit:4;stroke-dasharray:none;stroke-opacity:1"
       d="m 313.34022,123.36899 a 6.6845808,6.6845808 0 0 1 -6.68458,6.68458 6.6845808,6.6845808 0 0 1 -6.68458,-6.68458 6.6845808,6.6845808 0 0 1 6.68458,-6.68458 6.6845808,6.6845808 0 0 1 6.68458,6.68458 z"
       id="path4164-6-7-5-3-75" />
    <path
       style="fill:#004082;fill-opacity:1;stroke:none;stroke-width:1.24826133;stroke-linejoin:miter;stroke-miterlimit:4;stroke-dasharray:none;stroke-opacity:1"
       d="m 313.34022,105.33163 a 6.6845808,6.6845808 0 0 1 -6.68458,6.68458 6.6845808,6.6845808 0 0 1 -6.68458,-6.68458 6.6845808,6.6845808 0 0 1 6.68458,-6.684584 6.6845808,6.6845808 0 0 1 6.68458,6.684584 z"
       id="path4164-6-7-5-5-92" />
  </g>
  <g
     inkscape:groupmode="layer"
     id="layer2"
     inkscape:label="Bleed Reference"
     transform="translate(0,-11.161429)" />
</svg>
